<svg xmlns="http://www.w3.org/2000/svg" viewBox="0 0 15.89 25.27"><defs><style>.cls-1{fill:#040404;}</style></defs><title>Asset 2</title><g id="Layer_2" data-name="Layer 2"><g id="Layer_1-2" data-name="Layer 1"><path class="cls-1" d="M14,18.25l-.07-.1c-1-1.43-1.69-2.43-3.78-1.82-1.39.41-1.25,1.51-3.18-.84L6,14.1l-.15-.32-.39-.93c-.27-.75-.71-3-.16-3.68a1.39,1.39,0,0,1,.8-.35c1-.25,2.39-.58,2.07-2.89A16.37,16.37,0,0,0,7,1.64,2.11,2.11,0,0,0,5.66.24,4.15,4.15,0,0,0,2.55.37,4,4,0,0,0,0,4.06,8.53,8.53,0,0,0,0,5.33C.58,11.15,2.37,16.94,6.3,21.4l.36.44L8.74,24c.86.88,1,1.25,2.52,1.24s3.86-.8,4.49-2.39c.45-1.15-.23-2.14-.74-3Z"/></g></g></svg>