<svg xmlns="http://www.w3.org/2000/svg" viewBox="0 0 29.5 24.58"><title>Asset 1</title><g fill="#FFF" id="Layer_2" data-name="Layer 2"><g id="Layer_1-2" data-name="Layer 1"><path d="M28.74,4.86a.87.87,0,0,0-.53.2L15.52,16.21a1.31,1.31,0,0,1-.89.34,1.35,1.35,0,0,1-.91-.34L1.41,5.43a1,1,0,0,0-.66-.29c-.08,0-.76,0-.76.94V22.63a2,2,0,0,0,1.94,2H27.6a1.91,1.91,0,0,0,1.9-2V5.83C29.5,4.89,28.81,4.86,28.74,4.86Z"/><path d="M1.17,1.52,13.55,12.2a1.58,1.58,0,0,0,1.07.43,1.63,1.63,0,0,0,1-.38L28.17,1.32h0c.17-.16.52-.49.36-.92A.62.62,0,0,0,28,0H1.57A.77.77,0,0,0,.85.46a.93.93,0,0,0,.3,1Z"/></g></g></svg>
