<svg xmlns="http://www.w3.org/2000/svg" viewBox="0 0 21.64 28.85"><title>Asset 3</title><g fill="#FFF" id="Layer_2" data-name="Layer 2"><g id="Layer_1-2" data-name="Layer 1"><path d="M21,10.82h-1.8V8.42a8.42,8.42,0,1,0-16.83,0v2.4H.6a.6.6,0,0,0-.6.6v15a2.41,2.41,0,0,0,2.4,2.4H19.24a2.41,2.41,0,0,0,2.4-2.4v-15A.6.6,0,0,0,21,10.82ZM12.24,20l.38,3.41A.6.6,0,0,1,12,24H9.62a.6.6,0,0,1-.6-.67L9.4,20a2.38,2.38,0,0,1-1-1.93,2.4,2.4,0,0,1,4.81,0A2.38,2.38,0,0,1,12.24,20Zm3.39-9.15H6V8.42a4.81,4.81,0,1,1,9.62,0Z"/></g></g></svg>
