<svg xmlns="http://www.w3.org/2000/svg" viewBox="0 0 31.24 31.24"><title>Asset 5</title><g fill="#d81919" id="Layer_2" data-name="Layer 2"><g id="Layer_1-2" data-name="Layer 1"><path d="M15.61,0A15.62,15.62,0,1,0,31.24,15.61,15.62,15.62,0,0,0,15.61,0Zm0,29.29A13.67,13.67,0,1,1,29.29,15.61,13.68,13.68,0,0,1,15.61,29.29Z"/><path d="M15.61,5.85a2,2,0,0,0-1.94,2v9.76a1.95,1.95,0,1,0,3.9,0V7.81A2,2,0,0,0,15.61,5.85Z"/><path d="M15.61,21.45a1.95,1.95,0,1,0,2,1.95A1.94,1.94,0,0,0,15.61,21.45Z"/></g></g></svg>
