<svg xmlns="http://www.w3.org/2000/svg" xmlns:xlink="http://www.w3.org/1999/xlink" viewBox="0 0 175.3 104.08"><defs><style>.cls-1{fill:none;}.cls-2{clip-path:url(#clip-path);}.cls-3{fill:#56b026;}.cls-4{fill:#55b026;}.cls-5{fill:#55b027;}.cls-6{fill:#54af27;}.cls-7{fill:#53af28;}.cls-8{fill:#52af29;}.cls-9{fill:#52ae2a;}.cls-10{fill:#51ae2a;}.cls-11{fill:#50ae2b;}.cls-12{fill:#4fad2c;}.cls-13{fill:#4ead2d;}.cls-14{fill:#4dad2e;}.cls-15{fill:#4cac2e;}.cls-16{fill:#4bac2f;}.cls-17{fill:#4aab30;}.cls-18{fill:#49ab32;}.cls-19{fill:#48aa33;}.cls-20{fill:#47aa34;}.cls-21{fill:#45a935;}.cls-22{fill:#44a936;}.cls-23{fill:#43a838;}.cls-24{fill:#41a839;}.cls-25{fill:#3fa73a;}.cls-26{fill:#3ea63c;}.cls-27{fill:#3ca63d;}.cls-28{fill:#3aa53f;}.cls-29{fill:#38a440;}.cls-30{fill:#36a342;}.cls-31{fill:#34a344;}.cls-32{fill:#27aecd;}.cls-33{fill:#fff;}</style><clipPath id="clip-path"><path class="cls-1" d="M100.9,15.72a2.56,2.56,0,0,0,2.46-3.23,2.55,2.55,0,0,0-4.63-.66H76.81a3.67,3.67,0,0,0-3.67,3.67V55.73a.62.62,0,0,1-.93.53,28.48,28.48,0,0,1-13.66-27,28.45,28.45,0,0,1,47-18.89,2.51,2.51,0,0,0,0,.26,2.56,2.56,0,0,0,3.23,2.46,2.52,2.52,0,0,0,1.78-1.78A2.56,2.56,0,0,0,108,8.06a2.53,2.53,0,0,0-1.13.27A30.91,30.91,0,1,0,73.12,59.55,1.72,1.72,0,0,0,75.59,58h0V15.5a1.22,1.22,0,0,1,1.22-1.22h21.8A2.54,2.54,0,0,0,100.9,15.72Z"/></clipPath></defs><title>Asset 1</title><g id="Layer_2" data-name="Layer 2"><g id="Layer_2-2" data-name="Layer 2"><g class="cls-2"><rect class="cls-3" x="54.69" width="56.26" height="0.96"/><rect class="cls-3" x="54.69" y="0.96" width="56.26" height="1.63"/><rect class="cls-3" x="54.69" y="2.59" width="56.26" height="1.63"/><rect class="cls-3" x="54.69" y="4.22" width="56.26" height="1.63"/><rect class="cls-3" x="54.69" y="5.86" width="56.26" height="1.63"/><rect class="cls-4" x="54.69" y="7.49" width="56.26" height="1.63"/><rect class="cls-4" x="54.69" y="9.12" width="56.26" height="1.63"/><rect class="cls-4" x="54.69" y="10.75" width="56.26" height="1.63"/><rect class="cls-5" x="54.69" y="12.39" width="56.26" height="1.63"/><rect class="cls-6" x="54.69" y="14.02" width="56.26" height="1.63"/><rect class="cls-6" x="54.69" y="15.65" width="56.26" height="1.63"/><rect class="cls-7" x="54.69" y="17.28" width="56.26" height="1.63"/><rect class="cls-7" x="54.69" y="18.92" width="56.26" height="1.63"/><rect class="cls-8" x="54.69" y="20.55" width="56.26" height="1.63"/><rect class="cls-9" x="54.69" y="22.18" width="56.26" height="1.63"/><rect class="cls-10" x="54.69" y="23.82" width="56.26" height="1.63"/><rect class="cls-11" x="54.69" y="25.45" width="56.26" height="1.63"/><rect class="cls-12" x="54.69" y="27.08" width="56.26" height="1.63"/><rect class="cls-13" x="54.69" y="28.71" width="56.26" height="1.63"/><rect class="cls-14" x="54.69" y="30.35" width="56.26" height="1.63"/><rect class="cls-15" x="54.69" y="31.98" width="56.26" height="1.63"/><rect class="cls-16" x="54.69" y="33.61" width="56.26" height="1.63"/><rect class="cls-17" x="54.69" y="35.24" width="56.26" height="1.63"/><rect class="cls-18" x="54.69" y="36.88" width="56.26" height="1.63"/><rect class="cls-19" x="54.69" y="38.51" width="56.26" height="1.63"/><rect class="cls-20" x="54.69" y="40.14" width="56.26" height="1.63"/><rect class="cls-21" x="54.69" y="41.77" width="56.26" height="1.63"/><rect class="cls-22" x="54.69" y="43.41" width="56.26" height="1.63"/><rect class="cls-23" x="54.69" y="45.04" width="56.26" height="1.63"/><rect class="cls-24" x="54.69" y="46.67" width="56.26" height="1.63"/><rect class="cls-25" x="54.69" y="48.3" width="56.26" height="1.63"/><rect class="cls-26" x="54.69" y="49.94" width="56.26" height="1.63"/><rect class="cls-27" x="54.69" y="51.57" width="56.26" height="1.63"/><rect class="cls-28" x="54.69" y="53.2" width="56.26" height="1.63"/><rect class="cls-29" x="54.69" y="54.84" width="56.26" height="1.63"/><rect class="cls-30" x="54.69" y="56.47" width="56.26" height="1.63"/><rect class="cls-31" x="54.69" y="58.1" width="56.26" height="1.63"/><rect class="cls-31" x="54.69" y="59.73" width="56.26" height="0.39"/></g><path class="cls-32" d="M117.83,31.88a29.84,29.84,0,0,0-1.58-9.78,2.47,2.47,0,0,0-2.33-1.69H85.84a3.52,3.52,0,0,0-3.52,3.52h0a3.52,3.52,0,0,0,3.52,3.52h7.91a3.81,3.81,0,0,1,3.88,3.48A3.67,3.67,0,0,1,94,34.79H82.32v10.6a2.54,2.54,0,0,0-1.22,2.17c0,.05,0,.1,0,.15s0,.1,0,.15a2.55,2.55,0,1,0,5.1,0c0-.05,0-.1,0-.15s0-.1,0-.15a2.54,2.54,0,0,0-1.43-2.28v-8h8.92a6.3,6.3,0,0,0,6.36-5.52A6.13,6.13,0,0,0,94,25H85.84a1.07,1.07,0,0,1-1.07-1.07h0a1.07,1.07,0,0,1,1.07-1.07H113a1.23,1.23,0,0,1,1.18.85,27.65,27.65,0,0,1,1.15,10.45A28.65,28.65,0,0,1,89.15,60.27c-.35,0-.7,0-1.05,0A2.55,2.55,0,1,0,88,62.78,31,31,0,0,0,117.83,31.88Z"/><path class="cls-33" d="M0,86.6a3.93,3.93,0,0,1,1.14-3.14,4.15,4.15,0,0,1,2.8-1q4.11,0,8.93.23V84H4.35a2.64,2.64,0,0,0-2,.7,2.81,2.81,0,0,0-.7,2.07v6.13l10,.15v1.25l-10,.15v9.43H0Z"/><path class="cls-33" d="M18.08,102.56q-1.94-1.52-1.94-5.22V82.48h1.69V97.33q0,2.92,1.5,4.06a7.48,7.48,0,0,0,4.54,1.14,7.47,7.47,0,0,0,4.55-1.14q1.49-1.14,1.49-4.06V82.48H31.6V97.33q0,3.71-1.94,5.22a9.3,9.3,0,0,1-5.79,1.52Q20,104.08,18.08,102.56Z"/><path class="cls-33" d="M36.54,82.48H38L49.81,101V82.48h1.69V103.9h-1.4L38.23,85.43V103.9H36.54Z"/><path class="cls-33" d="M56.26,82.48h1.43L69.54,101V82.48h1.69V103.9h-1.4L58,85.43V103.9H56.26Z"/><path class="cls-33" d="M76.75,103.23q-1.23-.79-1.23-3.21V86.6a3.93,3.93,0,0,1,1.14-3.14,4.15,4.15,0,0,1,2.8-1q1.55,0,6.86.15l2.07.09V84H79.9a2.72,2.72,0,0,0-2,.69,2.8,2.8,0,0,0-.7,2.09v5.69l10,.15v1.25l-10,.15V99.7a2.52,2.52,0,0,0,.79,2.19,3.58,3.58,0,0,0,2.1.55h8.29v1.31q-3.85.17-8.52.26A5.68,5.68,0,0,1,76.75,103.23Z"/><path class="cls-33" d="M93.66,103a3.9,3.9,0,0,1-1.09-3.14V82.48h1.69V99.64a2.53,2.53,0,0,0,.74,2.12,3.11,3.11,0,0,0,1.94.57h7.94v1.58H96.65A4.51,4.51,0,0,1,93.66,103Z"/><path class="cls-33" d="M110.57,103.9a24.16,24.16,0,0,1-3.18-.47V100.6q2.63.23,6.51.23a6.29,6.29,0,0,0,3-.55,2.09,2.09,0,0,0,1-2v-1a2.31,2.31,0,0,0-.64-1.75,2.65,2.65,0,0,0-1.9-.61h-2a6.81,6.81,0,0,1-4.6-1.34,5.51,5.51,0,0,1-1.53-4.35V88.08a5.53,5.53,0,0,1,1.69-4.47,7.62,7.62,0,0,1,5-1.43,29.54,29.54,0,0,1,3.31.2q1.8.21,3.08.47v2.83q-3.94-.26-6-.26a5.12,5.12,0,0,0-2.76.6,2.43,2.43,0,0,0-.92,2.2V89a2.31,2.31,0,0,0,.72,1.9,3.39,3.39,0,0,0,2.17.58h2.25a5.46,5.46,0,0,1,4.13,1.47,5.39,5.39,0,0,1,1.42,3.9v1.37q0,3.36-1.87,4.63a9.52,9.52,0,0,1-5.37,1.27Q112.5,104.08,110.57,103.9Z"/><path class="cls-33" d="M129.42,85.6h-6.19V82.36h16V85.6H133v18.3h-3.62Z"/><path class="cls-33" d="M145.88,82.36h4.55l7,21.54h-3.76L152,98.79h-7.79l-1.63,5.11h-3.71Zm5.25,13.19-3-10.1-3,10.1Z"/><path class="cls-33" d="M160.09,82.36h8.75a6.26,6.26,0,0,1,4.35,1.44q1.6,1.44,1.6,5.24a6.9,6.9,0,0,1-1,4.17,5.45,5.45,0,0,1-2.64,1.87l4.14,8.81h-3.65l-3.74-8.29q-1.78,0-4.23-.06v8.35h-3.59Zm8.14,10.36a2.88,2.88,0,0,0,2.17-.8,4.14,4.14,0,0,0,.77-2.87,3.69,3.69,0,0,0-.77-2.71,3,3,0,0,0-2.17-.73h-4.55v7.12Z"/></g></g></svg>