<svg xmlns="http://www.w3.org/2000/svg" viewBox="0 0 434.87 96.65"><defs><style>.cls-1{fill:#fff;}.cls-2{fill:#40a629;}.cls-3{fill:#28aecf;}</style></defs><title>Asset 2</title><g id="Layer_2" data-name="Layer 2"><g id="Layer_2-2" data-name="Layer 2"><path class="cls-1" d="M124.07,31.54q0-3.82,2-5.56a7.35,7.35,0,0,1,5-1.73q7.29,0,15.81.41V27H131.77a4.68,4.68,0,0,0-3.46,1.24,5,5,0,0,0-1.24,3.67V42.76l17.62.26v2.22l-17.62.26V62.19h-3Z"/><path class="cls-1" d="M156.08,59.81q-3.44-2.69-3.44-9.25V24.26h3v26.3q0,5.17,2.66,7.18t8,2q5.43,0,8.06-2T177,50.56V24.26h3v26.3q0,6.56-3.44,9.25T166.34,62.5Q159.52,62.5,156.08,59.81Z"/><path class="cls-1" d="M188.77,24.26h2.53l21,32.71V24.26h3V62.19H212.8l-21-32.71V62.19h-3Z"/><path class="cls-1" d="M223.7,24.26h2.53l21,32.71V24.26h3V62.19h-2.48l-21-32.71V62.19h-3Z"/><path class="cls-1" d="M260,61q-2.17-1.4-2.17-5.68V31.54q0-3.82,2-5.56a7.35,7.35,0,0,1,5-1.73q2.74,0,12.14.26l3.67.15V27h-15A4.81,4.81,0,0,0,262,28.21a5,5,0,0,0-1.24,3.69V42l17.62.26v2.22l-17.62.26v10q0,2.9,1.4,3.88a6.35,6.35,0,0,0,3.72,1H280.6v2.33q-6.82.31-15.09.46A10,10,0,0,1,260,61Z"/><path class="cls-1" d="M289.93,60.56Q288,58.93,288,55V24.26h3V54.64q0,2.74,1.32,3.75a5.5,5.5,0,0,0,3.44,1H309.8v2.79H295.23A8,8,0,0,1,289.93,60.56Z"/><path class="cls-1" d="M319.88,62.19a42.51,42.51,0,0,1-5.63-.83v-5q4.65.41,11.52.41a11.13,11.13,0,0,0,5.25-1,3.71,3.71,0,0,0,1.78-3.57V50.4a4.09,4.09,0,0,0-1.14-3.1,4.69,4.69,0,0,0-3.36-1.09h-3.57q-5.43,0-8.14-2.38t-2.71-7.7v-2q0-5.37,3-7.91t8.89-2.53a52.26,52.26,0,0,1,5.87.36q3.18.36,5.45.83v5q-7-.47-10.59-.47a9.06,9.06,0,0,0-4.88,1.06Q320,31.59,320,34.44v1.29a4.09,4.09,0,0,0,1.27,3.36,6,6,0,0,0,3.85,1h4q4.8,0,7.31,2.61a9.55,9.55,0,0,1,2.51,6.9v2.43q0,5.94-3.31,8.19t-9.51,2.25Q323.29,62.5,319.88,62.19Z"/><path class="cls-1" d="M353.26,29.79h-11V24h28.27v5.74h-10.9v32.4h-6.41Z"/><path class="cls-1" d="M382.41,24h8.06l12.4,38.14H396.2l-2.95-9h-13.8l-2.89,9H370Zm9.3,23.36-5.37-17.88L381,47.41Z"/><path class="cls-1" d="M407.57,24h15.5a11.09,11.09,0,0,1,7.7,2.56q2.84,2.56,2.84,9.28,0,5.07-1.78,7.39a9.65,9.65,0,0,1-4.68,3.31l7.34,15.61H428l-6.62-14.68q-3.15,0-7.49-.1V62.19h-6.36ZM422,42.39A5.1,5.1,0,0,0,425.84,41q1.37-1.42,1.37-5.09,0-3.51-1.37-4.81A5.39,5.39,0,0,0,422,29.79h-8.06V42.39Z"/><path class="cls-2" d="M55.81,18.34a3.18,3.18,0,0,0,3.06-4,3.17,3.17,0,0,0-5.75-.82H25.88a4.57,4.57,0,0,0-4.57,4.57v50a.77.77,0,0,1-1.15.66,35.38,35.38,0,0,1-17-33.57A35.35,35.35,0,0,1,61.55,11.68a3.12,3.12,0,0,0,0,.32,3.18,3.18,0,0,0,4,3.06,3.14,3.14,0,0,0,2.22-2.22,3.18,3.18,0,0,0-3.06-4,3.14,3.14,0,0,0-1.4.34,38.4,38.4,0,1,0-42,63.64,2.13,2.13,0,0,0,3.06-1.92h0V18.07a1.52,1.52,0,0,1,1.52-1.52H53A3.16,3.16,0,0,0,55.81,18.34Z"/><path class="cls-3" d="M76.85,38.43a37.07,37.07,0,0,0-2-12.16,3.07,3.07,0,0,0-2.9-2.1l-34.89,0a4.37,4.37,0,0,0-4.37,4.37v0a4.37,4.37,0,0,0,4.37,4.37h9.83a4.74,4.74,0,0,1,4.82,4.32A4.57,4.57,0,0,1,47.19,42H32.73V55.21a3.16,3.16,0,0,0-1.52,2.7c0,.07,0,.13,0,.19s0,.13,0,.19a3.17,3.17,0,1,0,6.34,0c0-.07,0-.13,0-.19s0-.12,0-.19a3.16,3.16,0,0,0-1.78-2.83v-10H46.86a7.83,7.83,0,0,0,7.9-6.86,7.61,7.61,0,0,0-7.57-8.36H37.1a1.32,1.32,0,0,1-1.32-1.32v0A1.32,1.32,0,0,1,37.1,27.2H70.8a1.53,1.53,0,0,1,1.46,1.06,34.36,34.36,0,0,1,1.43,13A35.6,35.6,0,0,1,41.22,73.7c-.44,0-.87,0-1.31,0a3.17,3.17,0,1,0-.09,3.08A38.47,38.47,0,0,0,76.85,38.43Z"/><path class="cls-1" d="M250.55,79.13h6.73a4.65,4.65,0,0,1,4.3,2.14q1.32,2.14,1.31,6.55a12.09,12.09,0,0,1-1.43,6.38,4.63,4.63,0,0,1-4.18,2.31h-6.73Zm6.63,16.15a3.49,3.49,0,0,0,3.26-2,11.57,11.57,0,0,0,1.08-5.47,17.35,17.35,0,0,0-.44-4.33,4.36,4.36,0,0,0-1.39-2.38,3.94,3.94,0,0,0-2.51-.75h-5.26V95.28Z"/><path class="cls-1" d="M271.22,79.13H273l6.13,17.38h-1.44l-1.92-5.4h-7.34l-1.89,5.4h-1.44Zm4.14,10.75-3.27-9.52-3.32,9.52Z"/><path class="cls-1" d="M280.15,79.13h1.44l4,15.61,4.62-15.61h1.47l4.59,15.61,4-15.61h1.42L297.2,96.51h-1.56L291,81l-4.69,15.56h-1.56Z"/><path class="cls-1" d="M305,79.13h1.16l9.61,15v-15h1.37V96.51H316l-9.64-15v15H305Z"/><path class="cls-1" d="M320.62,79.13H322V96.51h-1.37Z"/><path class="cls-1" d="M326.85,96a2.89,2.89,0,0,1-1-2.6V82.47a3.18,3.18,0,0,1,.92-2.55,3.37,3.37,0,0,1,2.27-.79q1.25,0,5.56.12l1.68.07v1.07H329.4a2.21,2.21,0,0,0-1.61.56,2.27,2.27,0,0,0-.57,1.69v4.62l8.08.12v1l-8.08.12V93.1a2,2,0,0,0,.64,1.78,2.91,2.91,0,0,0,1.7.45h6.73v1.07q-3.13.14-6.92.21A4.61,4.61,0,0,1,326.85,96Z"/><path class="cls-1" d="M339.66,96.49a6.48,6.48,0,0,1-1.25-.4V95a9.06,9.06,0,0,0,1.22.27,7.82,7.82,0,0,0,1.2.11,2.87,2.87,0,0,0,1.94-.58,2.77,2.77,0,0,0,.66-2.14V79.13h1.37V92.84a4,4,0,0,1-.91,2.95,4,4,0,0,1-2.85.86A6.29,6.29,0,0,1,339.66,96.49Z"/><path class="cls-1" d="M356.88,95.73a4.86,4.86,0,0,1-1.68-2.81,21.81,21.81,0,0,1-.49-5.17,19.42,19.42,0,0,1,.52-5A5.09,5.09,0,0,1,357,79.92a5.63,5.63,0,0,1,3.45-.94q1.26,0,2.81.15a27.19,27.19,0,0,1,2.71.39v1q-.9-.12-2.43-.22t-2.93-.11a4.37,4.37,0,0,0-2.75.76,4.16,4.16,0,0,0-1.37,2.38,19.2,19.2,0,0,0-.4,4.44,20,20,0,0,0,.4,4.59,3.8,3.8,0,0,0,1.37,2.3,4.85,4.85,0,0,0,2.82.69,9.74,9.74,0,0,0,2.33-.31,17.65,17.65,0,0,0,2.31-.73V88.67h-4.55v-1a25.53,25.53,0,0,1,3.86-.24,15.93,15.93,0,0,1,2,.09v9h-1l-.24-1.23a14.91,14.91,0,0,1-2.45.95,9.53,9.53,0,0,1-2.71.4A5.51,5.51,0,0,1,356.88,95.73Z"/><path class="cls-1" d="M371.51,96a2.89,2.89,0,0,1-1-2.6V82.47a3.19,3.19,0,0,1,.92-2.55,3.37,3.37,0,0,1,2.27-.79q1.26,0,5.57.12l1.68.07v1.07h-6.89a2.2,2.2,0,0,0-1.61.56,2.27,2.27,0,0,0-.57,1.69v4.62l8.08.12v1l-8.08.12V93.1a2.05,2.05,0,0,0,.64,1.78,2.91,2.91,0,0,0,1.71.45H381v1.07q-3.13.14-6.91.21A4.6,4.6,0,0,1,371.51,96Z"/><path class="cls-1" d="M388.37,80.36H382.8V79.13h12.5v1.23h-5.57V96.51h-1.37Z"/><path class="cls-1" d="M401.56,79.13h1.78l6.13,17.38H408l-1.92-5.4h-7.34l-1.89,5.4h-1.45Zm4.14,10.75-3.27-9.52-3.31,9.52Z"/><path class="cls-1" d="M413.2,95.77a3.17,3.17,0,0,1-.89-2.55V79.13h1.37V93.06a2,2,0,0,0,.6,1.72,2.52,2.52,0,0,0,1.58.46h6.44v1.28h-6.68A3.65,3.65,0,0,1,413.2,95.77Z"/><path class="cls-1" d="M425.77,95.77a3.17,3.17,0,0,1-.89-2.55V79.13h1.37V93.06a2.05,2.05,0,0,0,.6,1.72,2.52,2.52,0,0,0,1.58.46h6.44v1.28H428.2A3.66,3.66,0,0,1,425.77,95.77Z"/></g></g></svg>